<?xml version="1.0" encoding="UTF-8" standalone="no"?> <!-- Created with Vectornator for iOS (http://vectornator.io/) --><!DOCTYPE svg PUBLIC "-//W3C//DTD SVG 1.1//EN" "http://www.w3.org/Graphics/SVG/1.1/DTD/svg11.dtd">
<svg style="fill-rule:evenodd;clip-rule:evenodd;stroke-linecap:round;stroke-linejoin:round;" xmlns:vectornator="http://vectornator.io" xmlns:xlink="http://www.w3.org/1999/xlink" xmlns="http://www.w3.org/2000/svg" xml:space="preserve" version="1.1" viewBox="0 0 370 320">
<metadata>
<vectornator:setting key="DisplayWhiteBackground" value="0"/>
<vectornator:setting key="RulersVisible" value="1"/>
<vectornator:setting key="SnapToEdges" value="1"/>
<vectornator:setting key="Units" value="Pixels"/>
<vectornator:setting key="New" value="1"/>
<vectornator:setting key="DynamicGuides" value="1"/>
<vectornator:setting key="SnapToPoints" value="0"/>
<vectornator:setting key="CMYKEnabledKey" value="0"/>
<vectornator:setting key="SnapToGrid" value="0"/>
<vectornator:setting key="SnapToGuides" value="0"/>
<vectornator:setting key="GridSpacing" value="36"/>
</metadata>
<defs/>
<g id="Layer 1" vectornator:layerName="Layer 1">
<path d="M20.5625+0C9.20687+1.27157e-06+0+9.20687+0+20.5625L0+300.219C1.27157e-06+311.574+9.20687+320.781+20.5625+320.781L349.438+320.781C360.793+320.781+370+311.574+370+300.219L370+20.5625C370+9.20687+360.793+0+349.438+0L20.5625+0ZM35+20C46.0457+20+55+28.9543+55+40C55+51.0457+46.0457+60+35+60C23.9543+60+15+51.0457+15+40C15+28.9543+23.9543+20+35+20ZM85+20C96.0457+20+105+28.9543+105+40C105+51.0457+96.0457+60+85+60C73.9543+60+65+51.0457+65+40C65+28.9543+73.9543+20+85+20ZM135+20C146.046+20+155+28.9543+155+40C155+51.0457+146.046+60+135+60C123.954+60+115+51.0457+115+40C115+28.9543+123.954+20+135+20ZM185+20C196.046+20+205+28.9543+205+40C205+51.0457+196.046+60+185+60C173.954+60+165+51.0457+165+40C165+28.9543+173.954+20+185+20ZM235+20C246.046+20+255+28.9543+255+40C255+51.0457+246.046+60+235+60C223.954+60+215+51.0457+215+40C215+28.9543+223.954+20+235+20ZM285+20C296.046+20+305+28.9543+305+40C305+51.0457+296.046+60+285+60C273.954+60+265+51.0457+265+40C265+28.9543+273.954+20+285+20ZM335+20C346.046+20+355+28.9543+355+40C355+51.0457+346.046+60+335+60C323.954+60+315+51.0457+315+40C315+28.9543+323.954+20+335+20ZM35+70C46.0457+70+55+78.9543+55+90C55+101.046+46.0457+110+35+110C23.9543+110+15+101.046+15+90C15+78.9543+23.9543+70+35+70ZM85+70C96.0457+70+105+78.9543+105+90C105+101.046+96.0457+110+85+110C73.9543+110+65+101.046+65+90C65+78.9543+73.9543+70+85+70ZM135+70C146.046+70+155+78.9543+155+90C155+101.046+146.046+110+135+110C123.954+110+115+101.046+115+90C115+78.9543+123.954+70+135+70ZM185+70C196.046+70+205+78.9543+205+90C205+101.046+196.046+110+185+110C173.954+110+165+101.046+165+90C165+78.9543+173.954+70+185+70ZM235+70C246.046+70+255+78.9543+255+90C255+101.046+246.046+110+235+110C223.954+110+215+101.046+215+90C215+78.9543+223.954+70+235+70ZM285+70C296.046+70+305+78.9543+305+90C305+101.046+296.046+110+285+110C273.954+110+265+101.046+265+90C265+78.9543+273.954+70+285+70ZM335+70C346.046+70+355+78.9543+355+90C355+101.046+346.046+110+335+110C323.954+110+315+101.046+315+90C315+78.9543+323.954+70+335+70ZM35+120C46.0457+120+55+128.954+55+140C55+151.046+46.0457+160+35+160C23.9543+160+15+151.046+15+140C15+128.954+23.9543+120+35+120ZM85+120C96.0457+120+105+128.954+105+140C105+151.046+96.0457+160+85+160C73.9543+160+65+151.046+65+140C65+128.954+73.9543+120+85+120ZM135+120C146.046+120+155+128.954+155+140C155+151.046+146.046+160+135+160C123.954+160+115+151.046+115+140C115+128.954+123.954+120+135+120ZM185+120C196.046+120+205+128.954+205+140C205+151.046+196.046+160+185+160C173.954+160+165+151.046+165+140C165+128.954+173.954+120+185+120ZM235+120C246.046+120+255+128.954+255+140C255+151.046+246.046+160+235+160C223.954+160+215+151.046+215+140C215+128.954+223.954+120+235+120ZM285+120C296.046+120+305+128.954+305+140C305+151.046+296.046+160+285+160C273.954+160+265+151.046+265+140C265+128.954+273.954+120+285+120ZM335+120C346.046+120+355+128.954+355+140C355+151.046+346.046+160+335+160C323.954+160+315+151.046+315+140C315+128.954+323.954+120+335+120ZM35+170C46.0457+170+55+178.954+55+190C55+201.046+46.0457+210+35+210C23.9543+210+15+201.046+15+190C15+178.954+23.9543+170+35+170ZM85+170C96.0457+170+105+178.954+105+190C105+201.046+96.0457+210+85+210C73.9543+210+65+201.046+65+190C65+178.954+73.9543+170+85+170ZM135+170C146.046+170+155+178.954+155+190C155+201.046+146.046+210+135+210C123.954+210+115+201.046+115+190C115+178.954+123.954+170+135+170ZM185+170C196.046+170+205+178.954+205+190C205+201.046+196.046+210+185+210C173.954+210+165+201.046+165+190C165+178.954+173.954+170+185+170ZM235+170C246.046+170+255+178.954+255+190C255+201.046+246.046+210+235+210C223.954+210+215+201.046+215+190C215+178.954+223.954+170+235+170ZM285+170C296.046+170+305+178.954+305+190C305+201.046+296.046+210+285+210C273.954+210+265+201.046+265+190C265+178.954+273.954+170+285+170ZM335+170C346.046+170+355+178.954+355+190C355+201.046+346.046+210+335+210C323.954+210+315+201.046+315+190C315+178.954+323.954+170+335+170ZM35+220C46.0457+220+55+228.954+55+240C55+251.046+46.0457+260+35+260C23.9543+260+15+251.046+15+240C15+228.954+23.9543+220+35+220ZM85+220C96.0457+220+105+228.954+105+240C105+251.046+96.0457+260+85+260C73.9543+260+65+251.046+65+240C65+228.954+73.9543+220+85+220ZM135+220C146.046+220+155+228.954+155+240C155+251.046+146.046+260+135+260C123.954+260+115+251.046+115+240C115+228.954+123.954+220+135+220ZM185+220C196.046+220+205+228.954+205+240C205+251.046+196.046+260+185+260C173.954+260+165+251.046+165+240C165+228.954+173.954+220+185+220ZM235+220C246.046+220+255+228.954+255+240C255+251.046+246.046+260+235+260C223.954+260+215+251.046+215+240C215+228.954+223.954+220+235+220ZM285+220C296.046+220+305+228.954+305+240C305+251.046+296.046+260+285+260C273.954+260+265+251.046+265+240C265+228.954+273.954+220+285+220ZM335+220C346.046+220+355+228.954+355+240C355+251.046+346.046+260+335+260C323.954+260+315+251.046+315+240C315+228.954+323.954+220+335+220ZM35+270C46.0457+270+55+278.954+55+290C55+301.046+46.0457+310+35+310C23.9543+310+15+301.046+15+290C15+278.954+23.9543+270+35+270ZM85+270C96.0457+270+105+278.954+105+290C105+301.046+96.0457+310+85+310C73.9543+310+65+301.046+65+290C65+278.954+73.9543+270+85+270ZM135+270C146.046+270+155+278.954+155+290C155+301.046+146.046+310+135+310C123.954+310+115+301.046+115+290C115+278.954+123.954+270+135+270ZM185+270C196.046+270+205+278.954+205+290C205+301.046+196.046+310+185+310C173.954+310+165+301.046+165+290C165+278.954+173.954+270+185+270ZM235+270C246.046+270+255+278.954+255+290C255+301.046+246.046+310+235+310C223.954+310+215+301.046+215+290C215+278.954+223.954+270+235+270ZM285+270C296.046+270+305+278.954+305+290C305+301.046+296.046+310+285+310C273.954+310+265+301.046+265+290C265+278.954+273.954+270+285+270ZM335+270C346.046+270+355+278.954+355+290C355+301.046+346.046+310+335+310C323.954+310+315+301.046+315+290C315+278.954+323.954+270+335+270Z" opacity="1" fill="#1f69fc"/>
</g>
</svg>
